<svg width="81" height="88" viewBox="0 0 81 88" fill="none" xmlns="http://www.w3.org/2000/svg">
<path d="M37.4395 9.0381C37.83 8.64758 37.83 8.01441 37.4395 7.62389L31.0755 1.25993C30.685 0.869401 30.0518 0.869401 29.6613 1.25993C29.2708 1.65045 29.2708 2.28362 29.6613 2.67414L35.3182 8.33099L29.6613 13.9878C29.2708 14.3784 29.2708 15.0115 29.6613 15.4021C30.0518 15.7926 30.685 15.7926 31.0755 15.4021L37.4395 9.0381ZM36.7324 78.9155C17.7352 78.9155 2.31689 63.3485 2.31689 44.1232H0.316895C0.316895 64.433 16.6107 80.9155 36.7324 80.9155V78.9155ZM2.31689 44.1232C2.31689 24.898 17.7352 9.33099 36.7324 9.33099V7.33099C16.6107 7.33099 0.316895 23.8135 0.316895 44.1232H2.31689Z" fill="#0017E9"/>
<path d="M42.807 79.2084C42.4165 79.5989 42.4165 80.2321 42.807 80.6226L49.1709 86.9866C49.5615 87.3771 50.1946 87.3771 50.5851 86.9866C50.9757 86.5961 50.9757 85.9629 50.5851 85.5724L44.9283 79.9155L50.5851 74.2587C50.9757 73.8682 50.9757 73.235 50.5851 72.8445C50.1946 72.4539 49.5615 72.4539 49.1709 72.8445L42.807 79.2084ZM43.5141 9.33102C62.9473 9.33102 78.6831 24.9179 78.6831 44.1233L80.6831 44.1233C80.6831 23.7936 64.0321 7.33102 43.5141 7.33102L43.5141 9.33102ZM78.6831 44.1233C78.6831 63.3287 62.9473 78.9155 43.5141 78.9155L43.5141 80.9155C64.0321 80.9155 80.6831 64.4529 80.6831 44.1233L78.6831 44.1233Z" fill="#0017E9"/>
</svg>
